<svg id="Layer_1" data-name="Layer 1" xmlns="http://www.w3.org/2000/svg" viewBox="0 0 70 57"><defs><style>.cls-1{fill:#fff;}</style></defs><path class="cls-1" d="M47.56,7.25H58.71c3.76,0,6.59.89,8.47,2.67S70,14.33,70,17.78V22q0,5.18-2.82,7.85c-1.88,1.79-4.71,2.68-8.47,2.68H55.13V49.86H47.56ZM58.71,26.42a3.83,3.83,0,0,0,2.79-.91,4.24,4.24,0,0,0,.93-3.1V17.35a4.24,4.24,0,0,0-.93-3.1,3.83,3.83,0,0,0-2.79-.92H55.13V26.42Z"/><rect class="cls-1" y="30.46" width="53.05" height="3.87"/><rect class="cls-1" x="22.07" y="14.98" width="30.98" height="3.87"/><rect class="cls-1" y="7.25" width="53.05" height="4.08"/><rect class="cls-1" x="22.07" y="22.72" width="30.98" height="3.87"/><rect class="cls-1" y="38.2" width="53.05" height="3.87"/><rect class="cls-1" y="45.94" width="53.05" height="3.87"/><path class="cls-1" d="M6,18.37H8.25a.17.17,0,0,0,.2-.14c.45-1.3.91-2.59,1.36-3.89,0,0,0-.06,0-.08s.07-.07.1-.06a.13.13,0,0,1,.1.06.34.34,0,0,1,.05.14c.43,1.21.85,2.43,1.27,3.64a1.42,1.42,0,0,1,.07.22.16.16,0,0,0,.18.11h4.46c.07,0,.14,0,.14.07s0,.11-.08.14l-2.66,1.8-.94.64a.14.14,0,0,0-.06.19c.45,1.31.91,2.61,1.36,3.92,0,0,0,0,0,.06s0,.1,0,.12a.19.19,0,0,1-.13,0l-.23-.15-3.38-2.29c-.14-.1-.14-.1-.28,0L6.28,25.25a.47.47,0,0,1-.09.06.28.28,0,0,1-.13,0,.14.14,0,0,1,0-.11c0-.05,0-.1.05-.15l1.34-3.83A.16.16,0,0,0,7.34,21L3.75,18.58a.15.15,0,0,1-.08-.14c0-.07.08-.07.14-.07Z"/></svg>